<svg id="Layer_1" data-name="Layer 1" xmlns="http://www.w3.org/2000/svg" viewBox="0 0 183.1 247.74"><defs><style>.cls-1{fill:#93d6e2;}</style></defs><title>HR logo</title><polygon class="cls-1" points="39.37 99.02 39.37 126.62 39.37 145.64 57.95 134.82 64.61 130.94 64.61 110.17 64.61 88.59 39.37 73.89 39.37 99.02"/><polygon class="cls-1" points="39.37 213.26 39.37 219.85 64.61 205.16 64.61 198.56 64.61 161.69 39.37 176.39 39.37 213.26"/><polygon class="cls-1" points="167.28 44.42 142.04 29.72 119.55 16.63 116.23 14.7 112.44 12.49 90.99 0 90.99 24.98 87.35 27.09 68.67 37.97 64.61 40.33 43.59 52.57 39.37 55.03 23.18 64.46 0 77.95 0 86.24 30.29 68.6 39.37 63.31 50.7 56.72 64.61 48.62 75.79 42.11 90.99 33.26 94.47 31.23 116.23 43.91 142.04 58.93 165.16 72.4 167.28 73.63 183.1 82.84 183.1 53.63 167.28 44.42"/><path class="cls-1" d="M356,262.69l-25.81-15L305,233V429.74L330.23,415V350.52L338,346l6.44,2.85L356,354v46l25.24-14.7V337.53l-16.35-7.22,16.35-9.52V277.39l-20.79-12.11ZM330.23,315V282.9l5.17-3,20.64,12v34.48Z" transform="translate(-214 -182.01)"/>
  <text x="10" y="30" class="text">H</text>
  <text x="50" y="30" class="text">R</text></svg>